# Blender 4.1.0
# www.blender.org
mtllib d4.mtl
o Cone
v 0.000000 -0.700000 -1.000000
v 0.866025 -0.700000 0.500000
v -0.866025 -0.700000 0.500000
v 0.000000 0.700000 0.000000
vn 0.8156 0.3363 -0.4709
vn -0.0000 -1.0000 -0.0000
vn -0.0000 0.3363 0.9417
vn -0.8156 0.3363 -0.4709
vt 0.396484 0.691876
vt 0.396484 0.234791
vt 0.792331 0.006249
vt 0.998094 0.996240
vt 0.615025 0.333215
vt 0.232362 0.996475
vt 0.000638 0.006249
s 0
usemtl triangle_material
f 1/1/1 4/2/1 2/3/1
f 1/4/2 2/5/2 3/6/2
f 2/3/3 4/2/3 3/7/3
f 3/7/4 4/2/4 1/1/4
