ply
format ascii 1.0
comment : MagicaVoxel @ Ephtracy
element vertex 1489
property float x
property float y
property float z
property uchar red
property uchar green
property uchar blue
end_header
-13 -13 0 100 72 24
-12 -13 0 100 72 24
-11 -13 0 100 72 24
-10 -13 0 100 72 24
-9 -13 0 100 72 24
-8 -13 0 100 72 24
-7 -13 0 100 72 24
-6 -13 0 100 72 24
-5 -13 0 100 72 24
-4 -13 0 100 72 24
-3 -13 0 100 72 24
-2 -13 0 100 72 24
-1 -13 0 100 72 24
0 -13 0 100 72 24
1 -13 0 100 72 24
2 -13 0 100 72 24
3 -13 0 100 72 24
4 -13 0 100 72 24
5 -13 0 100 72 24
6 -13 0 100 72 24
7 -13 0 100 72 24
8 -13 0 100 72 24
9 -13 0 100 72 24
10 -13 0 100 72 24
11 -13 0 100 72 24
12 -13 0 100 72 24
-13 -12 0 100 72 24
-12 -12 0 100 72 24
-11 -12 0 100 72 24
-10 -12 0 100 72 24
-9 -12 0 100 72 24
-8 -12 0 100 72 24
-7 -12 0 100 72 24
-6 -12 0 100 72 24
-5 -12 0 100 72 24
-4 -12 0 100 72 24
-3 -12 0 100 72 24
-2 -12 0 100 72 24
-1 -12 0 100 72 24
0 -12 0 100 72 24
1 -12 0 100 72 24
2 -12 0 100 72 24
3 -12 0 100 72 24
4 -12 0 100 72 24
5 -12 0 100 72 24
6 -12 0 100 72 24
7 -12 0 100 72 24
8 -12 0 100 72 24
9 -12 0 100 72 24
10 -12 0 100 72 24
11 -12 0 100 72 24
12 -12 0 100 72 24
-13 -11 0 100 72 24
-12 -11 0 100 72 24
-11 -11 0 100 72 24
-10 -11 0 100 72 24
-9 -11 0 100 72 24
-8 -11 0 100 72 24
-7 -11 0 100 72 24
-6 -11 0 100 72 24
-5 -11 0 100 72 24
-4 -11 0 100 72 24
-3 -11 0 100 72 24
-2 -11 0 100 72 24
-1 -11 0 100 72 24
0 -11 0 100 72 24
1 -11 0 100 72 24
2 -11 0 100 72 24
3 -11 0 100 72 24
4 -11 0 100 72 24
5 -11 0 100 72 24
6 -11 0 100 72 24
7 -11 0 100 72 24
8 -11 0 100 72 24
9 -11 0 100 72 24
10 -11 0 100 72 24
11 -11 0 100 72 24
12 -11 0 100 72 24
-13 -10 0 100 72 24
-12 -10 0 100 72 24
-11 -10 0 100 72 24
-10 -10 0 100 72 24
-9 -10 0 100 72 24
-8 -10 0 100 72 24
-7 -10 0 100 72 24
-6 -10 0 100 72 24
-5 -10 0 100 72 24
-4 -10 0 100 72 24
-3 -10 0 100 72 24
-2 -10 0 100 72 24
-1 -10 0 100 72 24
0 -10 0 100 72 24
1 -10 0 100 72 24
2 -10 0 100 72 24
3 -10 0 100 72 24
4 -10 0 100 72 24
5 -10 0 100 72 24
6 -10 0 100 72 24
7 -10 0 100 72 24
8 -10 0 100 72 24
9 -10 0 100 72 24
10 -10 0 100 72 24
11 -10 0 100 72 24
12 -10 0 100 72 24
-13 -9 0 100 72 24
-12 -9 0 100 72 24
-11 -9 0 100 72 24
-10 -9 0 100 72 24
-9 -9 0 100 72 24
-8 -9 0 100 72 24
-7 -9 0 100 72 24
-6 -9 0 100 72 24
-5 -9 0 100 72 24
-4 -9 0 100 72 24
-3 -9 0 100 72 24
-2 -9 0 100 72 24
-1 -9 0 100 72 24
0 -9 0 100 72 24
1 -9 0 100 72 24
2 -9 0 100 72 24
3 -9 0 100 72 24
4 -9 0 100 72 24
5 -9 0 100 72 24
6 -9 0 100 72 24
7 -9 0 100 72 24
8 -9 0 100 72 24
9 -9 0 100 72 24
10 -9 0 100 72 24
11 -9 0 100 72 24
12 -9 0 100 72 24
-13 -8 0 100 72 24
-12 -8 0 100 72 24
-11 -8 0 100 72 24
-10 -8 0 100 72 24
-9 -8 0 100 72 24
-8 -8 0 100 72 24
-7 -8 0 100 72 24
-6 -8 0 100 72 24
-5 -8 0 100 72 24
-4 -8 0 100 72 24
-3 -8 0 100 72 24
-2 -8 0 100 72 24
-1 -8 0 100 72 24
0 -8 0 100 72 24
1 -8 0 100 72 24
2 -8 0 100 72 24
3 -8 0 100 72 24
4 -8 0 100 72 24
5 -8 0 100 72 24
6 -8 0 100 72 24
7 -8 0 100 72 24
8 -8 0 100 72 24
9 -8 0 100 72 24
10 -8 0 100 72 24
11 -8 0 100 72 24
12 -8 0 100 72 24
-13 -7 0 100 72 24
-12 -7 0 100 72 24
-11 -7 0 100 72 24
-10 -7 0 100 72 24
-9 -7 0 100 72 24
-8 -7 0 100 72 24
-7 -7 0 100 72 24
-6 -7 0 100 72 24
-5 -7 0 100 72 24
-4 -7 0 100 72 24
-3 -7 0 100 72 24
-2 -7 0 100 72 24
-1 -7 0 100 72 24
0 -7 0 100 72 24
1 -7 0 100 72 24
2 -7 0 100 72 24
3 -7 0 100 72 24
4 -7 0 100 72 24
5 -7 0 100 72 24
6 -7 0 100 72 24
7 -7 0 100 72 24
8 -7 0 100 72 24
9 -7 0 100 72 24
10 -7 0 100 72 24
11 -7 0 100 72 24
12 -7 0 100 72 24
-13 -6 0 100 72 24
-12 -6 0 100 72 24
-11 -6 0 100 72 24
-10 -6 0 100 72 24
-9 -6 0 100 72 24
-8 -6 0 100 72 24
-7 -6 0 100 72 24
-6 -6 0 100 72 24
-5 -6 0 100 72 24
-4 -6 0 100 72 24
-3 -6 0 100 72 24
-2 -6 0 100 72 24
-1 -6 0 100 72 24
0 -6 0 100 72 24
1 -6 0 100 72 24
2 -6 0 100 72 24
3 -6 0 100 72 24
4 -6 0 100 72 24
5 -6 0 100 72 24
6 -6 0 100 72 24
7 -6 0 100 72 24
8 -6 0 100 72 24
9 -6 0 100 72 24
10 -6 0 100 72 24
11 -6 0 100 72 24
12 -6 0 100 72 24
-13 -5 0 100 72 24
-12 -5 0 100 72 24
-11 -5 0 100 72 24
-10 -5 0 100 72 24
-9 -5 0 100 72 24
-8 -5 0 100 72 24
-7 -5 0 100 72 24
-6 -5 0 100 72 24
-5 -5 0 100 72 24
-4 -5 0 100 72 24
-3 -5 0 100 72 24
-2 -5 0 100 72 24
-1 -5 0 100 72 24
0 -5 0 100 72 24
1 -5 0 100 72 24
2 -5 0 100 72 24
3 -5 0 100 72 24
4 -5 0 100 72 24
5 -5 0 100 72 24
6 -5 0 100 72 24
7 -5 0 100 72 24
8 -5 0 100 72 24
9 -5 0 100 72 24
10 -5 0 100 72 24
11 -5 0 100 72 24
12 -5 0 100 72 24
-13 -4 0 100 72 24
-12 -4 0 100 72 24
-11 -4 0 100 72 24
-10 -4 0 100 72 24
-9 -4 0 100 72 24
-8 -4 0 100 72 24
-7 -4 0 100 72 24
-6 -4 0 100 72 24
-5 -4 0 100 72 24
-4 -4 0 100 72 24
-3 -4 0 100 72 24
-2 -4 0 100 72 24
-1 -4 0 100 72 24
0 -4 0 100 72 24
1 -4 0 100 72 24
2 -4 0 100 72 24
3 -4 0 100 72 24
4 -4 0 100 72 24
5 -4 0 100 72 24
6 -4 0 100 72 24
7 -4 0 100 72 24
8 -4 0 100 72 24
9 -4 0 100 72 24
10 -4 0 100 72 24
11 -4 0 100 72 24
12 -4 0 100 72 24
-13 -3 0 100 72 24
-12 -3 0 100 72 24
-11 -3 0 100 72 24
-10 -3 0 100 72 24
-9 -3 0 100 72 24
-8 -3 0 100 72 24
-7 -3 0 100 72 24
-6 -3 0 100 72 24
-5 -3 0 100 72 24
-4 -3 0 100 72 24
-3 -3 0 100 72 24
-2 -3 0 100 72 24
-1 -3 0 100 72 24
0 -3 0 100 72 24
1 -3 0 100 72 24
2 -3 0 100 72 24
3 -3 0 100 72 24
4 -3 0 100 72 24
5 -3 0 100 72 24
6 -3 0 100 72 24
7 -3 0 100 72 24
8 -3 0 100 72 24
9 -3 0 100 72 24
10 -3 0 100 72 24
11 -3 0 100 72 24
12 -3 0 100 72 24
-13 -2 0 100 72 24
-12 -2 0 100 72 24
-11 -2 0 100 72 24
-10 -2 0 100 72 24
-9 -2 0 100 72 24
-8 -2 0 100 72 24
-7 -2 0 100 72 24
-6 -2 0 100 72 24
-5 -2 0 100 72 24
-4 -2 0 100 72 24
-3 -2 0 100 72 24
-2 -2 0 100 72 24
-1 -2 0 100 72 24
0 -2 0 100 72 24
1 -2 0 100 72 24
2 -2 0 100 72 24
3 -2 0 100 72 24
4 -2 0 100 72 24
5 -2 0 100 72 24
6 -2 0 100 72 24
7 -2 0 100 72 24
8 -2 0 100 72 24
9 -2 0 100 72 24
10 -2 0 100 72 24
11 -2 0 100 72 24
12 -2 0 100 72 24
-13 -1 0 100 72 24
-12 -1 0 100 72 24
-11 -1 0 100 72 24
-10 -1 0 100 72 24
-9 -1 0 100 72 24
-8 -1 0 100 72 24
-7 -1 0 100 72 24
-6 -1 0 100 72 24
-5 -1 0 100 72 24
-4 -1 0 100 72 24
-3 -1 0 100 72 24
-2 -1 0 100 72 24
-1 -1 0 100 72 24
0 -1 0 100 72 24
1 -1 0 100 72 24
2 -1 0 100 72 24
3 -1 0 100 72 24
4 -1 0 100 72 24
5 -1 0 100 72 24
6 -1 0 100 72 24
7 -1 0 100 72 24
8 -1 0 100 72 24
9 -1 0 100 72 24
10 -1 0 100 72 24
11 -1 0 100 72 24
12 -1 0 100 72 24
-13 0 0 100 72 24
-12 0 0 100 72 24
-11 0 0 100 72 24
-10 0 0 100 72 24
-9 0 0 100 72 24
-8 0 0 100 72 24
-7 0 0 100 72 24
-6 0 0 100 72 24
-5 0 0 100 72 24
-4 0 0 100 72 24
-3 0 0 100 72 24
-2 0 0 100 72 24
-1 0 0 100 72 24
0 0 0 100 72 24
1 0 0 100 72 24
2 0 0 100 72 24
3 0 0 100 72 24
4 0 0 100 72 24
5 0 0 100 72 24
6 0 0 100 72 24
7 0 0 100 72 24
8 0 0 100 72 24
9 0 0 100 72 24
10 0 0 100 72 24
11 0 0 100 72 24
12 0 0 100 72 24
-13 1 0 100 72 24
-12 1 0 100 72 24
-11 1 0 100 72 24
-10 1 0 100 72 24
-9 1 0 100 72 24
-8 1 0 100 72 24
-7 1 0 100 72 24
-6 1 0 100 72 24
-5 1 0 100 72 24
-4 1 0 100 72 24
-3 1 0 100 72 24
-2 1 0 100 72 24
-1 1 0 100 72 24
0 1 0 100 72 24
1 1 0 100 72 24
2 1 0 100 72 24
3 1 0 100 72 24
4 1 0 100 72 24
5 1 0 100 72 24
6 1 0 100 72 24
7 1 0 100 72 24
8 1 0 100 72 24
9 1 0 100 72 24
10 1 0 100 72 24
11 1 0 100 72 24
12 1 0 100 72 24
-13 2 0 100 72 24
-12 2 0 100 72 24
-11 2 0 100 72 24
-10 2 0 100 72 24
-9 2 0 100 72 24
-8 2 0 100 72 24
-7 2 0 100 72 24
-6 2 0 100 72 24
-5 2 0 100 72 24
-4 2 0 100 72 24
-3 2 0 100 72 24
-2 2 0 100 72 24
-1 2 0 100 72 24
0 2 0 100 72 24
1 2 0 100 72 24
2 2 0 100 72 24
3 2 0 100 72 24
4 2 0 100 72 24
5 2 0 100 72 24
6 2 0 100 72 24
7 2 0 100 72 24
8 2 0 100 72 24
9 2 0 100 72 24
10 2 0 100 72 24
11 2 0 100 72 24
12 2 0 100 72 24
-13 3 0 100 72 24
-12 3 0 100 72 24
-11 3 0 100 72 24
-10 3 0 100 72 24
-9 3 0 100 72 24
-8 3 0 100 72 24
-7 3 0 100 72 24
-6 3 0 100 72 24
-5 3 0 100 72 24
-4 3 0 100 72 24
-3 3 0 100 72 24
-2 3 0 100 72 24
-1 3 0 100 72 24
0 3 0 100 72 24
1 3 0 100 72 24
2 3 0 100 72 24
3 3 0 100 72 24
4 3 0 100 72 24
5 3 0 100 72 24
6 3 0 100 72 24
7 3 0 100 72 24
8 3 0 100 72 24
9 3 0 100 72 24
10 3 0 100 72 24
11 3 0 100 72 24
12 3 0 100 72 24
-13 4 0 100 72 24
-12 4 0 100 72 24
-11 4 0 100 72 24
-10 4 0 100 72 24
-9 4 0 100 72 24
-8 4 0 100 72 24
-7 4 0 100 72 24
-6 4 0 100 72 24
-5 4 0 100 72 24
-4 4 0 100 72 24
-3 4 0 100 72 24
-2 4 0 100 72 24
-1 4 0 100 72 24
0 4 0 100 72 24
1 4 0 100 72 24
2 4 0 100 72 24
3 4 0 100 72 24
4 4 0 100 72 24
5 4 0 100 72 24
6 4 0 100 72 24
7 4 0 100 72 24
8 4 0 100 72 24
9 4 0 100 72 24
10 4 0 100 72 24
11 4 0 100 72 24
12 4 0 100 72 24
-13 5 0 100 72 24
-12 5 0 100 72 24
-11 5 0 100 72 24
-10 5 0 100 72 24
-9 5 0 100 72 24
-8 5 0 100 72 24
-7 5 0 100 72 24
-6 5 0 100 72 24
-5 5 0 100 72 24
-4 5 0 100 72 24
-3 5 0 100 72 24
-2 5 0 100 72 24
-1 5 0 100 72 24
0 5 0 100 72 24
1 5 0 100 72 24
2 5 0 100 72 24
3 5 0 100 72 24
4 5 0 100 72 24
5 5 0 100 72 24
6 5 0 100 72 24
7 5 0 100 72 24
8 5 0 100 72 24
9 5 0 100 72 24
10 5 0 100 72 24
11 5 0 100 72 24
12 5 0 100 72 24
-13 6 0 100 72 24
-12 6 0 100 72 24
-11 6 0 100 72 24
-10 6 0 100 72 24
-9 6 0 100 72 24
-8 6 0 100 72 24
-7 6 0 100 72 24
-6 6 0 100 72 24
-5 6 0 100 72 24
-4 6 0 100 72 24
-3 6 0 100 72 24
-2 6 0 100 72 24
-1 6 0 100 72 24
0 6 0 100 72 24
1 6 0 100 72 24
2 6 0 100 72 24
3 6 0 100 72 24
4 6 0 100 72 24
5 6 0 100 72 24
6 6 0 100 72 24
7 6 0 100 72 24
8 6 0 100 72 24
9 6 0 100 72 24
10 6 0 100 72 24
11 6 0 100 72 24
12 6 0 100 72 24
-13 7 0 100 72 24
-12 7 0 100 72 24
-11 7 0 100 72 24
-10 7 0 100 72 24
-9 7 0 100 72 24
-8 7 0 100 72 24
-7 7 0 100 72 24
-6 7 0 100 72 24
-5 7 0 100 72 24
-4 7 0 100 72 24
-3 7 0 100 72 24
-2 7 0 100 72 24
-1 7 0 100 72 24
0 7 0 100 72 24
1 7 0 100 72 24
2 7 0 100 72 24
3 7 0 100 72 24
4 7 0 100 72 24
5 7 0 100 72 24
6 7 0 100 72 24
7 7 0 100 72 24
8 7 0 100 72 24
9 7 0 100 72 24
10 7 0 100 72 24
11 7 0 100 72 24
12 7 0 100 72 24
-13 8 0 100 72 24
-12 8 0 100 72 24
-11 8 0 100 72 24
-10 8 0 100 72 24
-9 8 0 100 72 24
-8 8 0 100 72 24
-7 8 0 100 72 24
-6 8 0 100 72 24
-5 8 0 100 72 24
-4 8 0 100 72 24
-3 8 0 100 72 24
-2 8 0 100 72 24
-1 8 0 100 72 24
0 8 0 100 72 24
1 8 0 100 72 24
2 8 0 100 72 24
3 8 0 100 72 24
4 8 0 100 72 24
5 8 0 100 72 24
6 8 0 100 72 24
7 8 0 100 72 24
8 8 0 100 72 24
9 8 0 100 72 24
10 8 0 100 72 24
11 8 0 100 72 24
12 8 0 100 72 24
-13 9 0 100 72 24
-12 9 0 100 72 24
-11 9 0 100 72 24
-10 9 0 100 72 24
-9 9 0 100 72 24
-8 9 0 100 72 24
-7 9 0 100 72 24
-6 9 0 100 72 24
-5 9 0 100 72 24
-4 9 0 100 72 24
-3 9 0 100 72 24
-2 9 0 100 72 24
-1 9 0 100 72 24
0 9 0 100 72 24
1 9 0 100 72 24
2 9 0 100 72 24
3 9 0 100 72 24
4 9 0 100 72 24
5 9 0 100 72 24
6 9 0 100 72 24
7 9 0 100 72 24
8 9 0 100 72 24
9 9 0 100 72 24
10 9 0 100 72 24
11 9 0 100 72 24
12 9 0 100 72 24
-13 10 0 100 72 24
-12 10 0 100 72 24
-11 10 0 100 72 24
-10 10 0 100 72 24
-9 10 0 100 72 24
-8 10 0 100 72 24
-7 10 0 100 72 24
-6 10 0 100 72 24
-5 10 0 100 72 24
-4 10 0 100 72 24
-3 10 0 100 72 24
-2 10 0 100 72 24
-1 10 0 100 72 24
0 10 0 100 72 24
1 10 0 100 72 24
2 10 0 100 72 24
3 10 0 100 72 24
4 10 0 100 72 24
5 10 0 100 72 24
6 10 0 100 72 24
7 10 0 100 72 24
8 10 0 100 72 24
9 10 0 100 72 24
10 10 0 100 72 24
11 10 0 100 72 24
12 10 0 100 72 24
-13 11 0 100 72 24
-12 11 0 100 72 24
-11 11 0 100 72 24
-10 11 0 100 72 24
-9 11 0 100 72 24
-8 11 0 100 72 24
-7 11 0 100 72 24
-6 11 0 100 72 24
-5 11 0 100 72 24
-4 11 0 100 72 24
-3 11 0 100 72 24
-2 11 0 100 72 24
-1 11 0 100 72 24
0 11 0 100 72 24
1 11 0 100 72 24
2 11 0 100 72 24
3 11 0 100 72 24
4 11 0 100 72 24
5 11 0 100 72 24
6 11 0 100 72 24
7 11 0 100 72 24
8 11 0 100 72 24
9 11 0 100 72 24
10 11 0 100 72 24
11 11 0 100 72 24
12 11 0 100 72 24
-13 12 0 100 72 24
-12 12 0 100 72 24
-11 12 0 100 72 24
-10 12 0 100 72 24
-9 12 0 100 72 24
-8 12 0 100 72 24
-7 12 0 100 72 24
-6 12 0 100 72 24
-5 12 0 100 72 24
-4 12 0 100 72 24
-3 12 0 100 72 24
-2 12 0 100 72 24
-1 12 0 100 72 24
0 12 0 100 72 24
1 12 0 100 72 24
2 12 0 100 72 24
3 12 0 100 72 24
4 12 0 100 72 24
5 12 0 100 72 24
6 12 0 100 72 24
7 12 0 100 72 24
8 12 0 100 72 24
9 12 0 100 72 24
10 12 0 100 72 24
11 12 0 100 72 24
12 12 0 100 72 24
-13 -13 1 100 72 24
-12 -13 1 100 72 24
-11 -13 1 100 72 24
-10 -13 1 100 72 24
-9 -13 1 100 72 24
-8 -13 1 100 72 24
-7 -13 1 100 72 24
-6 -13 1 100 72 24
-5 -13 1 100 72 24
-4 -13 1 100 72 24
-3 -13 1 100 72 24
-2 -13 1 100 72 24
-1 -13 1 100 72 24
0 -13 1 100 72 24
1 -13 1 100 72 24
2 -13 1 100 72 24
3 -13 1 100 72 24
4 -13 1 100 72 24
5 -13 1 100 72 24
6 -13 1 100 72 24
7 -13 1 100 72 24
8 -13 1 100 72 24
9 -13 1 100 72 24
10 -13 1 100 72 24
11 -13 1 100 72 24
12 -13 1 100 72 24
-13 -12 1 100 72 24
-12 -12 1 160 132 68
-11 -12 1 160 132 68
-10 -12 1 160 132 68
-9 -12 1 132 104 48
-8 -12 1 132 104 48
-7 -12 1 132 104 48
-6 -12 1 160 132 68
-5 -12 1 160 132 68
-4 -12 1 160 132 68
-3 -12 1 132 104 48
-2 -12 1 132 104 48
-1 -12 1 132 104 48
0 -12 1 160 132 68
1 -12 1 160 132 68
2 -12 1 160 132 68
3 -12 1 132 104 48
4 -12 1 132 104 48
5 -12 1 132 104 48
6 -12 1 160 132 68
7 -12 1 160 132 68
8 -12 1 160 132 68
9 -12 1 132 104 48
10 -12 1 132 104 48
11 -12 1 132 104 48
12 -12 1 100 72 24
-13 -11 1 100 72 24
-12 -11 1 160 132 68
-11 -11 1 160 132 68
-10 -11 1 160 132 68
-9 -11 1 132 104 48
-8 -11 1 132 104 48
-7 -11 1 132 104 48
-6 -11 1 160 132 68
-5 -11 1 160 132 68
-4 -11 1 160 132 68
-3 -11 1 132 104 48
-2 -11 1 132 104 48
-1 -11 1 132 104 48
0 -11 1 160 132 68
1 -11 1 160 132 68
2 -11 1 160 132 68
3 -11 1 132 104 48
4 -11 1 132 104 48
5 -11 1 132 104 48
6 -11 1 160 132 68
7 -11 1 160 132 68
8 -11 1 160 132 68
9 -11 1 132 104 48
10 -11 1 132 104 48
11 -11 1 132 104 48
12 -11 1 100 72 24
-13 -10 1 100 72 24
-12 -10 1 160 132 68
-11 -10 1 160 132 68
-10 -10 1 160 132 68
-9 -10 1 132 104 48
-8 -10 1 132 104 48
-7 -10 1 132 104 48
-6 -10 1 160 132 68
-5 -10 1 160 132 68
-4 -10 1 160 132 68
-3 -10 1 132 104 48
-2 -10 1 132 104 48
-1 -10 1 132 104 48
0 -10 1 160 132 68
1 -10 1 160 132 68
2 -10 1 160 132 68
3 -10 1 132 104 48
4 -10 1 132 104 48
5 -10 1 132 104 48
6 -10 1 160 132 68
7 -10 1 160 132 68
8 -10 1 160 132 68
9 -10 1 132 104 48
10 -10 1 132 104 48
11 -10 1 132 104 48
12 -10 1 100 72 24
-13 -9 1 100 72 24
-12 -9 1 132 104 48
-11 -9 1 132 104 48
-10 -9 1 132 104 48
-9 -9 1 160 132 68
-8 -9 1 160 132 68
-7 -9 1 160 132 68
-6 -9 1 132 104 48
-5 -9 1 132 104 48
-4 -9 1 132 104 48
-3 -9 1 160 132 68
-2 -9 1 160 132 68
-1 -9 1 160 132 68
0 -9 1 132 104 48
1 -9 1 132 104 48
2 -9 1 132 104 48
3 -9 1 160 132 68
4 -9 1 160 132 68
5 -9 1 160 132 68
6 -9 1 132 104 48
7 -9 1 132 104 48
8 -9 1 132 104 48
9 -9 1 160 132 68
10 -9 1 160 132 68
11 -9 1 160 132 68
12 -9 1 100 72 24
-13 -8 1 100 72 24
-12 -8 1 132 104 48
-11 -8 1 132 104 48
-10 -8 1 132 104 48
-9 -8 1 160 132 68
-8 -8 1 160 132 68
-7 -8 1 160 132 68
-6 -8 1 132 104 48
-5 -8 1 132 104 48
-4 -8 1 132 104 48
-3 -8 1 160 132 68
-2 -8 1 160 132 68
-1 -8 1 160 132 68
0 -8 1 132 104 48
1 -8 1 132 104 48
2 -8 1 132 104 48
3 -8 1 160 132 68
4 -8 1 160 132 68
5 -8 1 160 132 68
6 -8 1 132 104 48
7 -8 1 132 104 48
8 -8 1 132 104 48
9 -8 1 160 132 68
10 -8 1 160 132 68
11 -8 1 160 132 68
12 -8 1 100 72 24
-13 -7 1 100 72 24
-12 -7 1 132 104 48
-11 -7 1 132 104 48
-10 -7 1 132 104 48
-9 -7 1 160 132 68
-8 -7 1 160 132 68
-7 -7 1 160 132 68
-6 -7 1 132 104 48
-5 -7 1 132 104 48
-4 -7 1 132 104 48
-3 -7 1 160 132 68
-2 -7 1 160 132 68
-1 -7 1 160 132 68
0 -7 1 132 104 48
1 -7 1 132 104 48
2 -7 1 132 104 48
3 -7 1 160 132 68
4 -7 1 160 132 68
5 -7 1 160 132 68
6 -7 1 132 104 48
7 -7 1 132 104 48
8 -7 1 132 104 48
9 -7 1 160 132 68
10 -7 1 160 132 68
11 -7 1 160 132 68
12 -7 1 100 72 24
-13 -6 1 100 72 24
-12 -6 1 160 132 68
-11 -6 1 160 132 68
-10 -6 1 160 132 68
-9 -6 1 132 104 48
-8 -6 1 132 104 48
-7 -6 1 132 104 48
-6 -6 1 160 132 68
-5 -6 1 160 132 68
-4 -6 1 160 132 68
-3 -6 1 132 104 48
-2 -6 1 132 104 48
-1 -6 1 132 104 48
0 -6 1 160 132 68
1 -6 1 160 132 68
2 -6 1 160 132 68
3 -6 1 132 104 48
4 -6 1 132 104 48
5 -6 1 132 104 48
6 -6 1 160 132 68
7 -6 1 160 132 68
8 -6 1 160 132 68
9 -6 1 132 104 48
10 -6 1 132 104 48
11 -6 1 132 104 48
12 -6 1 100 72 24
-13 -5 1 100 72 24
-12 -5 1 160 132 68
-11 -5 1 160 132 68
-10 -5 1 160 132 68
-9 -5 1 132 104 48
-8 -5 1 132 104 48
-7 -5 1 132 104 48
-6 -5 1 160 132 68
-5 -5 1 160 132 68
-4 -5 1 160 132 68
-3 -5 1 132 104 48
-2 -5 1 132 104 48
-1 -5 1 132 104 48
0 -5 1 160 132 68
1 -5 1 160 132 68
2 -5 1 160 132 68
3 -5 1 132 104 48
4 -5 1 132 104 48
5 -5 1 132 104 48
6 -5 1 160 132 68
7 -5 1 160 132 68
8 -5 1 160 132 68
9 -5 1 132 104 48
10 -5 1 132 104 48
11 -5 1 132 104 48
12 -5 1 100 72 24
-13 -4 1 100 72 24
-12 -4 1 160 132 68
-11 -4 1 160 132 68
-10 -4 1 160 132 68
-9 -4 1 132 104 48
-8 -4 1 132 104 48
-7 -4 1 132 104 48
-6 -4 1 160 132 68
-5 -4 1 160 132 68
-4 -4 1 160 132 68
-3 -4 1 132 104 48
-2 -4 1 132 104 48
-1 -4 1 132 104 48
0 -4 1 160 132 68
1 -4 1 160 132 68
2 -4 1 160 132 68
3 -4 1 132 104 48
4 -4 1 132 104 48
5 -4 1 132 104 48
6 -4 1 160 132 68
7 -4 1 160 132 68
8 -4 1 160 132 68
9 -4 1 132 104 48
10 -4 1 132 104 48
11 -4 1 132 104 48
12 -4 1 100 72 24
-13 -3 1 100 72 24
-12 -3 1 132 104 48
-11 -3 1 132 104 48
-10 -3 1 132 104 48
-9 -3 1 160 132 68
-8 -3 1 160 132 68
-7 -3 1 160 132 68
-6 -3 1 132 104 48
-5 -3 1 132 104 48
-4 -3 1 132 104 48
-3 -3 1 160 132 68
-2 -3 1 160 132 68
-1 -3 1 160 132 68
0 -3 1 132 104 48
1 -3 1 132 104 48
2 -3 1 132 104 48
3 -3 1 160 132 68
4 -3 1 160 132 68
5 -3 1 160 132 68
6 -3 1 132 104 48
7 -3 1 132 104 48
8 -3 1 132 104 48
9 -3 1 160 132 68
10 -3 1 160 132 68
11 -3 1 160 132 68
12 -3 1 100 72 24
-13 -2 1 100 72 24
-12 -2 1 132 104 48
-11 -2 1 132 104 48
-10 -2 1 132 104 48
-9 -2 1 160 132 68
-8 -2 1 160 132 68
-7 -2 1 160 132 68
-6 -2 1 132 104 48
-5 -2 1 132 104 48
-4 -2 1 132 104 48
-3 -2 1 160 132 68
-2 -2 1 160 132 68
-1 -2 1 160 132 68
0 -2 1 132 104 48
1 -2 1 132 104 48
2 -2 1 132 104 48
3 -2 1 160 132 68
4 -2 1 160 132 68
5 -2 1 160 132 68
6 -2 1 132 104 48
7 -2 1 132 104 48
8 -2 1 132 104 48
9 -2 1 160 132 68
10 -2 1 160 132 68
11 -2 1 160 132 68
12 -2 1 100 72 24
-13 -1 1 100 72 24
-12 -1 1 132 104 48
-11 -1 1 132 104 48
-10 -1 1 132 104 48
-9 -1 1 160 132 68
-8 -1 1 160 132 68
-7 -1 1 160 132 68
-6 -1 1 132 104 48
-5 -1 1 132 104 48
-4 -1 1 132 104 48
-3 -1 1 160 132 68
-2 -1 1 160 132 68
-1 -1 1 160 132 68
0 -1 1 132 104 48
1 -1 1 132 104 48
2 -1 1 132 104 48
3 -1 1 160 132 68
4 -1 1 160 132 68
5 -1 1 160 132 68
6 -1 1 132 104 48
7 -1 1 132 104 48
8 -1 1 132 104 48
9 -1 1 160 132 68
10 -1 1 160 132 68
11 -1 1 160 132 68
12 -1 1 100 72 24
-13 0 1 100 72 24
-12 0 1 160 132 68
-11 0 1 160 132 68
-10 0 1 160 132 68
-9 0 1 132 104 48
-8 0 1 132 104 48
-7 0 1 132 104 48
-6 0 1 160 132 68
-5 0 1 160 132 68
-4 0 1 160 132 68
-3 0 1 132 104 48
-2 0 1 132 104 48
-1 0 1 132 104 48
0 0 1 160 132 68
1 0 1 160 132 68
2 0 1 160 132 68
3 0 1 132 104 48
4 0 1 132 104 48
5 0 1 132 104 48
6 0 1 160 132 68
7 0 1 160 132 68
8 0 1 160 132 68
9 0 1 132 104 48
10 0 1 132 104 48
11 0 1 132 104 48
12 0 1 100 72 24
-13 1 1 100 72 24
-12 1 1 160 132 68
-11 1 1 160 132 68
-10 1 1 160 132 68
-9 1 1 132 104 48
-8 1 1 132 104 48
-7 1 1 132 104 48
-6 1 1 160 132 68
-5 1 1 160 132 68
-4 1 1 160 132 68
-3 1 1 132 104 48
-2 1 1 132 104 48
-1 1 1 132 104 48
0 1 1 160 132 68
1 1 1 160 132 68
2 1 1 160 132 68
3 1 1 132 104 48
4 1 1 132 104 48
5 1 1 132 104 48
6 1 1 160 132 68
7 1 1 160 132 68
8 1 1 160 132 68
9 1 1 132 104 48
10 1 1 132 104 48
11 1 1 132 104 48
12 1 1 100 72 24
-13 2 1 100 72 24
-12 2 1 160 132 68
-11 2 1 160 132 68
-10 2 1 160 132 68
-9 2 1 132 104 48
-8 2 1 132 104 48
-7 2 1 132 104 48
-6 2 1 160 132 68
-5 2 1 160 132 68
-4 2 1 160 132 68
-3 2 1 132 104 48
-2 2 1 132 104 48
-1 2 1 132 104 48
0 2 1 160 132 68
1 2 1 160 132 68
2 2 1 160 132 68
3 2 1 132 104 48
4 2 1 132 104 48
5 2 1 132 104 48
6 2 1 160 132 68
7 2 1 160 132 68
8 2 1 160 132 68
9 2 1 132 104 48
10 2 1 132 104 48
11 2 1 132 104 48
12 2 1 100 72 24
-13 3 1 100 72 24
-12 3 1 132 104 48
-11 3 1 132 104 48
-10 3 1 132 104 48
-9 3 1 160 132 68
-8 3 1 160 132 68
-7 3 1 160 132 68
-6 3 1 132 104 48
-5 3 1 132 104 48
-4 3 1 132 104 48
-3 3 1 160 132 68
-2 3 1 160 132 68
-1 3 1 160 132 68
0 3 1 132 104 48
1 3 1 132 104 48
2 3 1 132 104 48
3 3 1 160 132 68
4 3 1 160 132 68
5 3 1 160 132 68
6 3 1 132 104 48
7 3 1 132 104 48
8 3 1 132 104 48
9 3 1 160 132 68
10 3 1 160 132 68
11 3 1 160 132 68
12 3 1 100 72 24
-13 4 1 100 72 24
-12 4 1 132 104 48
-11 4 1 132 104 48
-10 4 1 132 104 48
-9 4 1 160 132 68
-8 4 1 160 132 68
-7 4 1 160 132 68
-6 4 1 132 104 48
-5 4 1 132 104 48
-4 4 1 132 104 48
-3 4 1 160 132 68
-2 4 1 160 132 68
-1 4 1 160 132 68
0 4 1 132 104 48
1 4 1 132 104 48
2 4 1 132 104 48
3 4 1 160 132 68
4 4 1 160 132 68
5 4 1 160 132 68
6 4 1 132 104 48
7 4 1 132 104 48
8 4 1 132 104 48
9 4 1 160 132 68
10 4 1 160 132 68
11 4 1 160 132 68
12 4 1 100 72 24
-13 5 1 100 72 24
-12 5 1 132 104 48
-11 5 1 132 104 48
-10 5 1 132 104 48
-9 5 1 160 132 68
-8 5 1 160 132 68
-7 5 1 160 132 68
-6 5 1 132 104 48
-5 5 1 132 104 48
-4 5 1 132 104 48
-3 5 1 160 132 68
-2 5 1 160 132 68
-1 5 1 160 132 68
0 5 1 132 104 48
1 5 1 132 104 48
2 5 1 132 104 48
3 5 1 160 132 68
4 5 1 160 132 68
5 5 1 160 132 68
6 5 1 132 104 48
7 5 1 132 104 48
8 5 1 132 104 48
9 5 1 160 132 68
10 5 1 160 132 68
11 5 1 160 132 68
12 5 1 100 72 24
-13 6 1 100 72 24
-12 6 1 160 132 68
-11 6 1 160 132 68
-10 6 1 160 132 68
-9 6 1 132 104 48
-8 6 1 132 104 48
-7 6 1 132 104 48
-6 6 1 160 132 68
-5 6 1 160 132 68
-4 6 1 160 132 68
-3 6 1 132 104 48
-2 6 1 132 104 48
-1 6 1 132 104 48
0 6 1 160 132 68
1 6 1 160 132 68
2 6 1 160 132 68
3 6 1 132 104 48
4 6 1 132 104 48
5 6 1 132 104 48
6 6 1 160 132 68
7 6 1 160 132 68
8 6 1 160 132 68
9 6 1 132 104 48
10 6 1 132 104 48
11 6 1 132 104 48
12 6 1 100 72 24
-13 7 1 100 72 24
-12 7 1 160 132 68
-11 7 1 160 132 68
-10 7 1 160 132 68
-9 7 1 132 104 48
-8 7 1 132 104 48
-7 7 1 132 104 48
-6 7 1 160 132 68
-5 7 1 160 132 68
-4 7 1 160 132 68
-3 7 1 132 104 48
-2 7 1 132 104 48
-1 7 1 132 104 48
0 7 1 160 132 68
1 7 1 160 132 68
2 7 1 160 132 68
3 7 1 132 104 48
4 7 1 132 104 48
5 7 1 132 104 48
6 7 1 160 132 68
7 7 1 160 132 68
8 7 1 160 132 68
9 7 1 132 104 48
10 7 1 132 104 48
11 7 1 132 104 48
12 7 1 100 72 24
-13 8 1 100 72 24
-12 8 1 160 132 68
-11 8 1 160 132 68
-10 8 1 160 132 68
-9 8 1 132 104 48
-8 8 1 132 104 48
-7 8 1 132 104 48
-6 8 1 160 132 68
-5 8 1 160 132 68
-4 8 1 160 132 68
-3 8 1 132 104 48
-2 8 1 132 104 48
-1 8 1 132 104 48
0 8 1 160 132 68
1 8 1 160 132 68
2 8 1 160 132 68
3 8 1 132 104 48
4 8 1 132 104 48
5 8 1 132 104 48
6 8 1 160 132 68
7 8 1 160 132 68
8 8 1 160 132 68
9 8 1 132 104 48
10 8 1 132 104 48
11 8 1 132 104 48
12 8 1 100 72 24
-13 9 1 100 72 24
-12 9 1 132 104 48
-11 9 1 132 104 48
-10 9 1 132 104 48
-9 9 1 160 132 68
-8 9 1 160 132 68
-7 9 1 160 132 68
-6 9 1 132 104 48
-5 9 1 132 104 48
-4 9 1 132 104 48
-3 9 1 160 132 68
-2 9 1 160 132 68
-1 9 1 160 132 68
0 9 1 132 104 48
1 9 1 132 104 48
2 9 1 132 104 48
3 9 1 160 132 68
4 9 1 160 132 68
5 9 1 160 132 68
6 9 1 132 104 48
7 9 1 132 104 48
8 9 1 132 104 48
9 9 1 160 132 68
10 9 1 160 132 68
11 9 1 160 132 68
12 9 1 100 72 24
-13 10 1 100 72 24
-12 10 1 132 104 48
-11 10 1 132 104 48
-10 10 1 132 104 48
-9 10 1 160 132 68
-8 10 1 160 132 68
-7 10 1 160 132 68
-6 10 1 132 104 48
-5 10 1 132 104 48
-4 10 1 132 104 48
-3 10 1 160 132 68
-2 10 1 160 132 68
-1 10 1 160 132 68
0 10 1 132 104 48
1 10 1 132 104 48
2 10 1 132 104 48
3 10 1 160 132 68
4 10 1 160 132 68
5 10 1 160 132 68
6 10 1 132 104 48
7 10 1 132 104 48
8 10 1 132 104 48
9 10 1 160 132 68
10 10 1 160 132 68
11 10 1 160 132 68
12 10 1 100 72 24
-13 11 1 100 72 24
-12 11 1 132 104 48
-11 11 1 132 104 48
-10 11 1 132 104 48
-9 11 1 160 132 68
-8 11 1 160 132 68
-7 11 1 160 132 68
-6 11 1 132 104 48
-5 11 1 132 104 48
-4 11 1 132 104 48
-3 11 1 160 132 68
-2 11 1 160 132 68
-1 11 1 160 132 68
0 11 1 132 104 48
1 11 1 132 104 48
2 11 1 132 104 48
3 11 1 160 132 68
4 11 1 160 132 68
5 11 1 160 132 68
6 11 1 132 104 48
7 11 1 132 104 48
8 11 1 132 104 48
9 11 1 160 132 68
10 11 1 160 132 68
11 11 1 160 132 68
12 11 1 100 72 24
-13 12 1 100 72 24
-12 12 1 100 72 24
-11 12 1 100 72 24
-10 12 1 100 72 24
-9 12 1 100 72 24
-8 12 1 100 72 24
-7 12 1 100 72 24
-6 12 1 100 72 24
-5 12 1 100 72 24
-4 12 1 100 72 24
-3 12 1 100 72 24
-2 12 1 100 72 24
-1 12 1 100 72 24
0 12 1 100 72 24
1 12 1 100 72 24
2 12 1 100 72 24
3 12 1 100 72 24
4 12 1 100 72 24
5 12 1 100 72 24
6 12 1 100 72 24
7 12 1 100 72 24
8 12 1 100 72 24
9 12 1 100 72 24
10 12 1 100 72 24
11 12 1 100 72 24
12 12 1 100 72 24
7 -6 2 236 236 236
6 -5 2 236 236 236
7 -5 2 236 236 236
8 -5 2 236 236 236
7 -4 2 236 236 236
-2 -3 2 64 64 64
-3 -2 2 64 64 64
-2 -2 2 64 64 64
-1 -2 2 64 64 64
-2 -1 2 64 64 64
-5 6 2 64 64 64
4 6 2 64 64 64
-6 7 2 64 64 64
-5 7 2 64 64 64
-4 7 2 64 64 64
3 7 2 64 64 64
4 7 2 64 64 64
5 7 2 64 64 64
-5 8 2 64 64 64
4 8 2 64 64 64
6 -6 3 236 236 236
7 -6 3 236 236 236
8 -6 3 236 236 236
6 -5 3 236 236 236
7 -5 3 236 236 236
8 -5 3 236 236 236
6 -4 3 236 236 236
7 -4 3 236 236 236
8 -4 3 236 236 236
-3 -3 3 64 64 64
-2 -3 3 64 64 64
-1 -3 3 64 64 64
-3 -2 3 64 64 64
-2 -2 3 64 64 64
-1 -2 3 64 64 64
-3 -1 3 64 64 64
-2 -1 3 64 64 64
-1 -1 3 64 64 64
-6 6 3 64 64 64
-5 6 3 64 64 64
-4 6 3 64 64 64
3 6 3 64 64 64
4 6 3 64 64 64
5 6 3 64 64 64
-6 7 3 64 64 64
-5 7 3 64 64 64
-4 7 3 64 64 64
3 7 3 64 64 64
4 7 3 64 64 64
5 7 3 64 64 64
-6 8 3 64 64 64
-5 8 3 64 64 64
-4 8 3 64 64 64
3 8 3 64 64 64
4 8 3 64 64 64
5 8 3 64 64 64
7 -6 4 236 236 236
6 -5 4 236 236 236
7 -5 4 236 236 236
8 -5 4 236 236 236
7 -4 4 236 236 236
-2 -3 4 64 64 64
-3 -2 4 64 64 64
-2 -2 4 64 64 64
-1 -2 4 64 64 64
-2 -1 4 64 64 64
-5 6 4 64 64 64
-6 7 4 64 64 64
-5 7 4 64 64 64
-4 7 4 64 64 64
4 7 4 64 64 64
-5 8 4 64 64 64
7 -5 5 236 236 236
-3 -2 5 64 64 64
-2 -2 5 64 64 64
-5 6 5 64 64 64
-6 7 5 64 64 64
-5 7 5 64 64 64
-4 7 5 64 64 64
4 7 5 64 64 64
-5 8 5 64 64 64
7 -5 6 236 236 236
-2 -3 6 64 64 64
-3 -2 6 64 64 64
-2 -2 6 64 64 64
-1 -2 6 64 64 64
0 -2 6 64 64 64
-2 -1 6 64 64 64
-5 6 6 64 64 64
4 6 6 64 64 64
-6 7 6 64 64 64
-5 7 6 64 64 64
-4 7 6 64 64 64
3 7 6 64 64 64
4 7 6 64 64 64
5 7 6 64 64 64
-5 8 6 64 64 64
4 8 6 64 64 64
7 -6 7 236 236 236
6 -5 7 236 236 236
7 -5 7 236 236 236
8 -5 7 236 236 236
7 -4 7 236 236 236
-2 -3 7 64 64 64
-1 -3 7 64 64 64
-3 -2 7 64 64 64
-2 -2 7 64 64 64
-1 -2 7 64 64 64
0 -2 7 64 64 64
-2 -1 7 64 64 64
-1 -1 7 64 64 64
-6 6 7 64 64 64
-5 6 7 64 64 64
-4 6 7 64 64 64
-6 7 7 64 64 64
-4 7 7 64 64 64
4 7 7 64 64 64
-6 8 7 64 64 64
-5 8 7 64 64 64
-4 8 7 64 64 64
6 -6 8 236 236 236
7 -6 8 236 236 236
8 -6 8 236 236 236
6 -5 8 236 236 236
7 -5 8 236 236 236
8 -5 8 236 236 236
6 -4 8 236 236 236
7 -4 8 236 236 236
8 -4 8 236 236 236
-3 -2 8 64 64 64
-2 -2 8 64 64 64
-1 -2 8 64 64 64
-6 6 8 64 64 64
-4 6 8 64 64 64
-6 8 8 64 64 64
-4 8 8 64 64 64
7 -5 9 236 236 236
